<mxfile host="app.diagrams.net" modified="2021-08-02T09:51:31.825Z" agent="5.0 (Windows NT 10.0; Win64; x64) AppleWebKit/537.36 (KHTML, like Gecko) Chrome/92.0.4515.107 Safari/537.36" etag="3TgTYf2gyIdVa1vAPMcz" version="14.8.3" type="github">
  <diagram id="6a731a19-8d31-9384-78a2-239565b7b9f0" name="Page-1">
    <mxGraphModel dx="1117" dy="623" grid="1" gridSize="10" guides="1" tooltips="1" connect="1" arrows="1" fold="1" page="1" pageScale="1" pageWidth="1169" pageHeight="827" background="none" math="0" shadow="0">
      <root>
        <mxCell id="0" />
        <mxCell id="1" parent="0" />
        <mxCell id="1745" value="" style="edgeStyle=none;rounded=0;jumpStyle=none;html=1;shadow=0;labelBackgroundColor=none;startArrow=none;startFill=0;endArrow=classic;endFill=1;jettySize=auto;orthogonalLoop=1;strokeColor=#2F5B7C;strokeWidth=3;fontFamily=Helvetica;fontSize=16;fontColor=#23445D;spacing=5;" parent="1" source="1749" target="1764" edge="1">
          <mxGeometry relative="1" as="geometry" />
        </mxCell>
        <mxCell id="1746" value="" style="edgeStyle=none;rounded=0;jumpStyle=none;html=1;shadow=0;labelBackgroundColor=none;startArrow=none;startFill=0;endArrow=classic;endFill=1;jettySize=auto;orthogonalLoop=1;strokeColor=#2F5B7C;strokeWidth=3;fontFamily=Helvetica;fontSize=16;fontColor=#23445D;spacing=5;" parent="1" source="1749" target="1771" edge="1">
          <mxGeometry relative="1" as="geometry" />
        </mxCell>
        <mxCell id="1747" value="" style="edgeStyle=none;rounded=0;jumpStyle=none;html=1;shadow=0;labelBackgroundColor=none;startArrow=none;startFill=0;endArrow=classic;endFill=1;jettySize=auto;orthogonalLoop=1;strokeColor=#2F5B7C;strokeWidth=3;fontFamily=Helvetica;fontSize=16;fontColor=#23445D;spacing=5;" parent="1" source="1749" target="1760" edge="1">
          <mxGeometry relative="1" as="geometry" />
        </mxCell>
        <mxCell id="1748" value="" style="edgeStyle=none;rounded=0;jumpStyle=none;html=1;shadow=0;labelBackgroundColor=none;startArrow=none;startFill=0;endArrow=classic;endFill=1;jettySize=auto;orthogonalLoop=1;strokeColor=#2F5B7C;strokeWidth=3;fontFamily=Helvetica;fontSize=16;fontColor=#23445D;spacing=5;" parent="1" source="1749" target="1753" edge="1">
          <mxGeometry relative="1" as="geometry" />
        </mxCell>
        <mxCell id="1749" value="银联二维码" style="rounded=1;whiteSpace=wrap;html=1;shadow=0;labelBackgroundColor=none;strokeColor=none;strokeWidth=3;fillColor=#2F5B7C;fontFamily=Helvetica;fontSize=16;fontColor=#FFFFFF;align=center;fontStyle=1;spacing=5;arcSize=7;perimeterSpacing=2;" parent="1" vertex="1">
          <mxGeometry x="495" y="380.5" width="150" height="70" as="geometry" />
        </mxCell>
        <mxCell id="1751" value="" style="edgeStyle=none;rounded=1;jumpStyle=none;html=1;shadow=0;labelBackgroundColor=none;startArrow=none;startFill=0;jettySize=auto;orthogonalLoop=1;strokeColor=#E85642;strokeWidth=3;fontFamily=Helvetica;fontSize=14;fontColor=#FFFFFF;spacing=5;fontStyle=1;fillColor=#b0e3e6;" parent="1" source="1753" target="1755" edge="1">
          <mxGeometry relative="1" as="geometry" />
        </mxCell>
        <mxCell id="1753" value="跨行绑卡" style="rounded=1;whiteSpace=wrap;html=1;shadow=0;labelBackgroundColor=none;strokeColor=none;strokeWidth=3;fillColor=#e85642;fontFamily=Helvetica;fontSize=14;fontColor=#FFFFFF;align=center;spacing=5;fontStyle=1;arcSize=7;perimeterSpacing=2;" parent="1" vertex="1">
          <mxGeometry x="215" y="385.5" width="150" height="60" as="geometry" />
        </mxCell>
        <mxCell id="1755" value="主扫交易：和标准二维码支付一致" style="rounded=1;whiteSpace=wrap;html=1;shadow=0;labelBackgroundColor=none;strokeColor=none;strokeWidth=3;fillColor=#f08e81;fontFamily=Helvetica;fontSize=14;fontColor=#FFFFFF;align=center;spacing=5;fontStyle=0;arcSize=7;perimeterSpacing=2;" parent="1" vertex="1">
          <mxGeometry x="14" y="304.5" width="150" height="60" as="geometry" />
        </mxCell>
        <mxCell id="1758" value="" style="edgeStyle=none;rounded=0;jumpStyle=none;html=1;shadow=0;labelBackgroundColor=none;startArrow=none;startFill=0;endArrow=classic;endFill=1;jettySize=auto;orthogonalLoop=1;strokeColor=#1699D3;strokeWidth=3;fontFamily=Helvetica;fontSize=14;fontColor=#FFFFFF;spacing=5;" parent="1" source="1760" target="1762" edge="1">
          <mxGeometry relative="1" as="geometry" />
        </mxCell>
        <mxCell id="1760" value="行业码&lt;br&gt;（主扫JS支付）" style="rounded=1;whiteSpace=wrap;html=1;shadow=0;labelBackgroundColor=none;strokeColor=none;strokeWidth=3;fillColor=#1699d3;fontFamily=Helvetica;fontSize=14;fontColor=#FFFFFF;align=center;spacing=5;fontStyle=1;arcSize=7;perimeterSpacing=2;" parent="1" vertex="1">
          <mxGeometry x="495" y="570.5" width="150" height="60" as="geometry" />
        </mxCell>
        <mxCell id="1761" value="付款方后台" style="rounded=1;whiteSpace=wrap;html=1;shadow=0;labelBackgroundColor=none;strokeColor=none;strokeWidth=3;fillColor=#64bbe2;fontFamily=Helvetica;fontSize=14;fontColor=#FFFFFF;align=center;spacing=5;arcSize=7;perimeterSpacing=2;" parent="1" vertex="1">
          <mxGeometry x="906.87" y="716.5" width="150" height="60" as="geometry" />
        </mxCell>
        <mxCell id="1762" value="用户付款APP" style="rounded=1;whiteSpace=wrap;html=1;shadow=0;labelBackgroundColor=none;strokeColor=none;strokeWidth=3;fillColor=#64bbe2;fontFamily=Helvetica;fontSize=14;fontColor=#FFFFFF;align=center;spacing=5;arcSize=7;perimeterSpacing=2;" parent="1" vertex="1">
          <mxGeometry x="495" y="716.5" width="150" height="60" as="geometry" />
        </mxCell>
        <mxCell id="XpW8_SyGIJJUAxE8_dCc-1810" value="14、收款通知" style="edgeStyle=orthogonalEdgeStyle;rounded=1;orthogonalLoop=1;jettySize=auto;html=1;exitX=0.75;exitY=1;exitDx=0;exitDy=0;fontSize=16;strokeColor=#000099;strokeWidth=3;fontStyle=1;fontColor=#6666FF;entryX=0.25;entryY=1;entryDx=0;entryDy=0;" edge="1" parent="1" source="1763" target="XpW8_SyGIJJUAxE8_dCc-1803">
          <mxGeometry relative="1" as="geometry">
            <mxPoint x="190" y="779" as="targetPoint" />
            <Array as="points">
              <mxPoint x="1020" y="1070" />
              <mxPoint x="197" y="1070" />
            </Array>
          </mxGeometry>
        </mxCell>
        <mxCell id="1763" value="银联" style="rounded=1;whiteSpace=wrap;html=1;shadow=0;labelBackgroundColor=none;strokeColor=none;strokeWidth=3;fillColor=#64bbe2;fontFamily=Helvetica;fontSize=14;fontColor=#FFFFFF;align=center;spacing=5;arcSize=7;perimeterSpacing=2;" parent="1" vertex="1">
          <mxGeometry x="906.25" y="920" width="150" height="60" as="geometry" />
        </mxCell>
        <mxCell id="1764" value="二维码专业化前置" style="rounded=1;whiteSpace=wrap;html=1;shadow=0;labelBackgroundColor=none;strokeColor=none;strokeWidth=3;fillColor=#F08705;fontFamily=Helvetica;fontSize=14;fontColor=#FFFFFF;align=center;spacing=5;fontStyle=1;arcSize=7;perimeterSpacing=2;" parent="1" vertex="1">
          <mxGeometry x="495" y="200.5" width="150" height="60" as="geometry" />
        </mxCell>
        <mxCell id="1765" value="现场服务（批量预制）" style="rounded=1;whiteSpace=wrap;html=1;shadow=0;labelBackgroundColor=none;strokeColor=none;strokeWidth=3;fillColor=#f5af58;fontFamily=Helvetica;fontSize=14;fontColor=#FFFFFF;align=center;spacing=5;arcSize=7;perimeterSpacing=2;" parent="1" vertex="1">
          <mxGeometry x="695" y="110.5" width="150" height="60" as="geometry" />
        </mxCell>
        <mxCell id="1766" value="" style="edgeStyle=none;rounded=0;jumpStyle=none;html=1;shadow=0;labelBackgroundColor=none;startArrow=none;startFill=0;endArrow=classic;endFill=1;jettySize=auto;orthogonalLoop=1;strokeColor=#F08705;strokeWidth=3;fontFamily=Helvetica;fontSize=14;fontColor=#FFFFFF;spacing=5;" parent="1" source="1764" target="1765" edge="1">
          <mxGeometry relative="1" as="geometry" />
        </mxCell>
        <mxCell id="1769" value="自助服务（单个）" style="rounded=1;whiteSpace=wrap;html=1;shadow=0;labelBackgroundColor=none;strokeColor=none;strokeWidth=3;fillColor=#f5af58;fontFamily=Helvetica;fontSize=14;fontColor=#FFFFFF;align=center;spacing=5;arcSize=7;perimeterSpacing=2;" parent="1" vertex="1">
          <mxGeometry x="295" y="110.5" width="150" height="60" as="geometry" />
        </mxCell>
        <mxCell id="1770" value="" style="edgeStyle=none;rounded=0;jumpStyle=none;html=1;shadow=0;labelBackgroundColor=none;startArrow=none;startFill=0;endArrow=classic;endFill=1;jettySize=auto;orthogonalLoop=1;strokeColor=#F08705;strokeWidth=3;fontFamily=Helvetica;fontSize=14;fontColor=#FFFFFF;spacing=5;" parent="1" source="1764" target="1769" edge="1">
          <mxGeometry relative="1" as="geometry" />
        </mxCell>
        <mxCell id="1771" value="标准二维码" style="rounded=1;whiteSpace=wrap;html=1;shadow=0;labelBackgroundColor=none;strokeColor=none;strokeWidth=3;fillColor=#12aab5;fontFamily=Helvetica;fontSize=14;fontColor=#FFFFFF;align=center;spacing=5;fontStyle=1;arcSize=7;perimeterSpacing=2;" parent="1" vertex="1">
          <mxGeometry x="795" y="385.4999999999999" width="150" height="60" as="geometry" />
        </mxCell>
        <mxCell id="jonmC86fZcQmtuheV53x-1791" value="" style="edgeStyle=none;rounded=0;orthogonalLoop=1;jettySize=auto;html=1;strokeColor=#67AB9F;strokeWidth=3;" parent="1" source="1772" target="jonmC86fZcQmtuheV53x-1783" edge="1">
          <mxGeometry relative="1" as="geometry" />
        </mxCell>
        <mxCell id="1772" value="成员机构发码" style="rounded=1;whiteSpace=wrap;html=1;shadow=0;labelBackgroundColor=none;strokeColor=none;strokeWidth=3;fillColor=#61c6ce;fontFamily=Helvetica;fontSize=14;fontColor=#FFFFFF;align=center;spacing=5;fontStyle=0;arcSize=7;perimeterSpacing=2;" parent="1" vertex="1">
          <mxGeometry x="875" y="524.5" width="150" height="60" as="geometry" />
        </mxCell>
        <mxCell id="1773" value="" style="edgeStyle=none;rounded=1;jumpStyle=none;html=1;shadow=0;labelBackgroundColor=none;startArrow=none;startFill=0;jettySize=auto;orthogonalLoop=1;strokeColor=#12AAB5;strokeWidth=3;fontFamily=Helvetica;fontSize=14;fontColor=#FFFFFF;spacing=5;fontStyle=1;fillColor=#b0e3e6;" parent="1" source="1771" target="1772" edge="1">
          <mxGeometry relative="1" as="geometry" />
        </mxCell>
        <mxCell id="1778" value="银联发码" style="rounded=1;whiteSpace=wrap;html=1;shadow=0;labelBackgroundColor=none;strokeColor=none;strokeWidth=3;fillColor=#61c6ce;fontFamily=Helvetica;fontSize=14;fontColor=#FFFFFF;align=center;spacing=5;fontStyle=0;arcSize=7;perimeterSpacing=2;" parent="1" vertex="1">
          <mxGeometry x="875" y="244.5" width="150" height="60" as="geometry" />
        </mxCell>
        <mxCell id="1779" value="" style="edgeStyle=none;rounded=1;jumpStyle=none;html=1;shadow=0;labelBackgroundColor=none;startArrow=none;startFill=0;jettySize=auto;orthogonalLoop=1;strokeColor=#12AAB5;strokeWidth=3;fontFamily=Helvetica;fontSize=14;fontColor=#FFFFFF;spacing=5;fontStyle=1;fillColor=#b0e3e6;" parent="1" source="1771" target="1778" edge="1">
          <mxGeometry relative="1" as="geometry" />
        </mxCell>
        <mxCell id="jonmC86fZcQmtuheV53x-1779" value="主扫消费交易" style="rounded=1;whiteSpace=wrap;html=1;shadow=0;labelBackgroundColor=none;strokeColor=none;strokeWidth=3;fontFamily=Helvetica;fontSize=14;fontColor=#FFFFFF;align=center;spacing=5;fontStyle=0;arcSize=7;perimeterSpacing=2;fillColor=#71E6F0;" parent="1" vertex="1">
          <mxGeometry x="1100" y="170.5" width="150" height="60" as="geometry" />
        </mxCell>
        <mxCell id="jonmC86fZcQmtuheV53x-1780" value="被扫消费交易" style="rounded=1;whiteSpace=wrap;html=1;shadow=0;labelBackgroundColor=none;strokeColor=none;strokeWidth=3;fontFamily=Helvetica;fontSize=14;fontColor=#FFFFFF;align=center;spacing=5;fontStyle=0;arcSize=7;perimeterSpacing=2;fillColor=#71E6F0;" parent="1" vertex="1">
          <mxGeometry x="1100" y="254.5" width="150" height="60" as="geometry" />
        </mxCell>
        <mxCell id="jonmC86fZcQmtuheV53x-1781" value="人到人付款交易" style="rounded=1;whiteSpace=wrap;html=1;shadow=0;labelBackgroundColor=none;strokeColor=none;strokeWidth=3;fontFamily=Helvetica;fontSize=14;fontColor=#FFFFFF;align=center;spacing=5;fontStyle=0;arcSize=7;perimeterSpacing=2;fillColor=#71E6F0;" parent="1" vertex="1">
          <mxGeometry x="1100" y="340" width="150" height="60" as="geometry" />
        </mxCell>
        <mxCell id="jonmC86fZcQmtuheV53x-1782" value="主扫消费交易" style="rounded=1;whiteSpace=wrap;html=1;shadow=0;labelBackgroundColor=none;strokeColor=none;strokeWidth=3;fontFamily=Helvetica;fontSize=14;fontColor=#FFFFFF;align=center;spacing=5;fontStyle=0;arcSize=7;perimeterSpacing=2;fillColor=#71E6F0;" parent="1" vertex="1">
          <mxGeometry x="1100" y="439.75" width="150" height="60" as="geometry" />
        </mxCell>
        <mxCell id="jonmC86fZcQmtuheV53x-1783" value="被扫消费交易" style="rounded=1;whiteSpace=wrap;html=1;shadow=0;labelBackgroundColor=none;strokeColor=none;strokeWidth=3;fontFamily=Helvetica;fontSize=14;fontColor=#FFFFFF;align=center;spacing=5;fontStyle=0;arcSize=7;perimeterSpacing=2;fillColor=#71E6F0;" parent="1" vertex="1">
          <mxGeometry x="1100" y="523.75" width="150" height="60" as="geometry" />
        </mxCell>
        <mxCell id="jonmC86fZcQmtuheV53x-1784" value="人到人付款交易" style="rounded=1;whiteSpace=wrap;html=1;shadow=0;labelBackgroundColor=none;strokeColor=none;strokeWidth=3;fontFamily=Helvetica;fontSize=14;fontColor=#FFFFFF;align=center;spacing=5;fontStyle=0;arcSize=7;perimeterSpacing=2;fillColor=#71E6F0;" parent="1" vertex="1">
          <mxGeometry x="1100" y="609.25" width="150" height="60" as="geometry" />
        </mxCell>
        <mxCell id="jonmC86fZcQmtuheV53x-1785" value="" style="endArrow=classic;html=1;strokeWidth=3;strokeColor=#67AB9F;" parent="1" source="1778" target="jonmC86fZcQmtuheV53x-1779" edge="1">
          <mxGeometry width="50" height="50" relative="1" as="geometry">
            <mxPoint x="990" y="470" as="sourcePoint" />
            <mxPoint x="1040" y="420" as="targetPoint" />
          </mxGeometry>
        </mxCell>
        <mxCell id="jonmC86fZcQmtuheV53x-1786" value="" style="endArrow=classic;html=1;strokeWidth=3;strokeColor=#67AB9F;" parent="1" source="1778" target="jonmC86fZcQmtuheV53x-1780" edge="1">
          <mxGeometry width="50" height="50" relative="1" as="geometry">
            <mxPoint x="1036.9999999999995" y="259.17555555555566" as="sourcePoint" />
            <mxPoint x="1108" y="235.82444444444445" as="targetPoint" />
          </mxGeometry>
        </mxCell>
        <mxCell id="jonmC86fZcQmtuheV53x-1787" value="" style="endArrow=classic;html=1;strokeWidth=3;strokeColor=#67AB9F;" parent="1" source="1778" target="jonmC86fZcQmtuheV53x-1781" edge="1">
          <mxGeometry width="50" height="50" relative="1" as="geometry">
            <mxPoint x="1036.9999999999995" y="287.92222222222233" as="sourcePoint" />
            <mxPoint x="1108" y="291.0777777777778" as="targetPoint" />
          </mxGeometry>
        </mxCell>
        <mxCell id="jonmC86fZcQmtuheV53x-1788" value="" style="endArrow=classic;html=1;strokeWidth=3;strokeColor=#67AB9F;" parent="1" source="1772" target="jonmC86fZcQmtuheV53x-1782" edge="1">
          <mxGeometry width="50" height="50" relative="1" as="geometry">
            <mxPoint x="1027.3899999999996" y="523.3555555555556" as="sourcePoint" />
            <mxPoint x="1098.39" y="500.00444444444446" as="targetPoint" />
          </mxGeometry>
        </mxCell>
        <mxCell id="jonmC86fZcQmtuheV53x-1789" value="" style="endArrow=classic;html=1;strokeWidth=3;strokeColor=#67AB9F;" parent="1" source="1772" target="jonmC86fZcQmtuheV53x-1783" edge="1">
          <mxGeometry width="50" height="50" relative="1" as="geometry">
            <mxPoint x="1027.3899999999996" y="552.1022222222223" as="sourcePoint" />
            <mxPoint x="1098.39" y="555.2577777777778" as="targetPoint" />
          </mxGeometry>
        </mxCell>
        <mxCell id="jonmC86fZcQmtuheV53x-1790" value="" style="endArrow=classic;html=1;strokeWidth=3;strokeColor=#67AB9F;" parent="1" source="1772" target="jonmC86fZcQmtuheV53x-1784" edge="1">
          <mxGeometry width="50" height="50" relative="1" as="geometry">
            <mxPoint x="1025.7826701570682" y="580.6800000000001" as="sourcePoint" />
            <mxPoint x="1099.997329842932" y="612.1800000000001" as="targetPoint" />
          </mxGeometry>
        </mxCell>
        <mxCell id="jonmC86fZcQmtuheV53x-1793" value="&lt;h1 style=&quot;font-size: 25px&quot;&gt;移动应用前置模式（本行可行）&lt;/h1&gt;&lt;p style=&quot;font-size: 18px&quot;&gt;银联和付款方APP后台交互，付款行内部进行扣款，由后台发送扣款信息到银联二维码处理系统，银联将根据结果进行资金清算。&lt;/p&gt;" style="text;html=1;strokeColor=none;fillColor=none;spacing=5;spacingTop=-20;whiteSpace=wrap;overflow=hidden;rounded=0;fontSize=18;" parent="1" vertex="1">
          <mxGeometry x="1470" y="180" width="290" height="180" as="geometry" />
        </mxCell>
        <mxCell id="jonmC86fZcQmtuheV53x-1794" value="&lt;h1 style=&quot;font-size: 25px&quot;&gt;银行卡前置模式（跨行必选）&lt;/h1&gt;&lt;p style=&quot;font-size: 18px&quot;&gt;银联和付款方APP后台交互，付款行内部进行扣款，由银联二维码系统替收款方或应用方发起一笔8583交易，经银联核心转接系统路由发给发卡行银行银行卡前置，随后银联二维码系统将8583交易处理结果通知应用方APP后台，银联将该8583交易纳入资金清算。&lt;/p&gt;" style="text;html=1;strokeColor=none;fillColor=none;spacing=5;spacingTop=-20;whiteSpace=wrap;overflow=hidden;rounded=0;fontSize=18;" parent="1" vertex="1">
          <mxGeometry x="1470" y="400" width="300" height="275.75" as="geometry" />
        </mxCell>
        <mxCell id="jonmC86fZcQmtuheV53x-1801" value="" style="shape=curlyBracket;whiteSpace=wrap;html=1;rounded=1;flipH=1;fontSize=18;fillColor=#71E6F0;" parent="1" vertex="1">
          <mxGeometry x="1420" y="190" width="20" height="470" as="geometry" />
        </mxCell>
        <mxCell id="jonmC86fZcQmtuheV53x-1802" value="Text" style="text;html=1;strokeColor=none;fillColor=none;align=center;verticalAlign=middle;whiteSpace=wrap;rounded=0;fontSize=18;" parent="1" vertex="1">
          <mxGeometry x="680" y="190" width="40" height="20" as="geometry" />
        </mxCell>
        <mxCell id="jonmC86fZcQmtuheV53x-1803" value="小微商户自行通过自助渠道进行入驻，机构审批，派单给拓展机构生成二维码物料并发送给商户" style="text;html=1;strokeColor=none;fillColor=none;align=left;verticalAlign=middle;whiteSpace=wrap;rounded=0;fontSize=18;labelPosition=center;verticalLabelPosition=middle;dashed=1;dashPattern=1 1;strokeWidth=4;" parent="1" vertex="1">
          <mxGeometry x="233.75" y="40" width="272.5" height="20" as="geometry" />
        </mxCell>
        <mxCell id="jonmC86fZcQmtuheV53x-1804" value="" style="endArrow=none;dashed=1;html=1;dashPattern=1 3;strokeWidth=2;fontSize=18;" parent="1" source="1769" target="jonmC86fZcQmtuheV53x-1803" edge="1">
          <mxGeometry width="50" height="50" relative="1" as="geometry">
            <mxPoint x="670" y="180" as="sourcePoint" />
            <mxPoint x="320" y="90" as="targetPoint" />
          </mxGeometry>
        </mxCell>
        <mxCell id="jonmC86fZcQmtuheV53x-1805" value="机构/拓展方批量申请二维码，现场和商户确认入驻需求，绑定二维码" style="text;html=1;strokeColor=none;fillColor=none;align=left;verticalAlign=middle;whiteSpace=wrap;rounded=0;fontSize=18;labelPosition=center;verticalLabelPosition=middle;" parent="1" vertex="1">
          <mxGeometry x="633.75" y="40" width="272.5" height="20" as="geometry" />
        </mxCell>
        <mxCell id="jonmC86fZcQmtuheV53x-1806" value="" style="endArrow=none;dashed=1;html=1;dashPattern=1 3;strokeWidth=2;fontSize=18;" parent="1" source="1765" edge="1">
          <mxGeometry width="50" height="50" relative="1" as="geometry">
            <mxPoint x="770.0000000000002" y="108.50000000000011" as="sourcePoint" />
            <mxPoint x="770" y="60" as="targetPoint" />
          </mxGeometry>
        </mxCell>
        <mxCell id="XpW8_SyGIJJUAxE8_dCc-1779" value="应用方通过银联导向，使用客户输入的跨行卡进行绑定" style="rounded=1;whiteSpace=wrap;html=1;shadow=0;labelBackgroundColor=none;strokeColor=none;strokeWidth=3;fillColor=#f08e81;fontFamily=Helvetica;fontSize=14;fontColor=#FFFFFF;align=center;spacing=5;fontStyle=0;arcSize=7;perimeterSpacing=2;" vertex="1" parent="1">
          <mxGeometry x="14" y="385.5" width="150" height="60" as="geometry" />
        </mxCell>
        <mxCell id="XpW8_SyGIJJUAxE8_dCc-1780" value="被扫交易：和标准二维码支付一致" style="rounded=1;whiteSpace=wrap;html=1;shadow=0;labelBackgroundColor=none;strokeColor=none;strokeWidth=3;fillColor=#f08e81;fontFamily=Helvetica;fontSize=14;fontColor=#FFFFFF;align=center;spacing=5;fontStyle=0;arcSize=7;perimeterSpacing=2;" vertex="1" parent="1">
          <mxGeometry x="14" y="464.5" width="150" height="60" as="geometry" />
        </mxCell>
        <mxCell id="XpW8_SyGIJJUAxE8_dCc-1782" value="" style="edgeStyle=none;rounded=1;jumpStyle=none;html=1;shadow=0;labelBackgroundColor=none;startArrow=none;startFill=0;jettySize=auto;orthogonalLoop=1;strokeColor=#E85642;strokeWidth=3;fontFamily=Helvetica;fontSize=14;fontColor=#FFFFFF;spacing=5;fontStyle=1;fillColor=#b0e3e6;exitX=0;exitY=0.5;exitDx=0;exitDy=0;entryX=1;entryY=0.5;entryDx=0;entryDy=0;" edge="1" parent="1" source="1753" target="XpW8_SyGIJJUAxE8_dCc-1779">
          <mxGeometry relative="1" as="geometry">
            <mxPoint x="223" y="394.4701492537313" as="sourcePoint" />
            <mxPoint x="176" y="375.5298507462686" as="targetPoint" />
          </mxGeometry>
        </mxCell>
        <mxCell id="XpW8_SyGIJJUAxE8_dCc-1783" value="" style="edgeStyle=none;rounded=1;jumpStyle=none;html=1;shadow=0;labelBackgroundColor=none;startArrow=none;startFill=0;jettySize=auto;orthogonalLoop=1;strokeColor=#E85642;strokeWidth=3;fontFamily=Helvetica;fontSize=14;fontColor=#FFFFFF;spacing=5;fontStyle=1;fillColor=#b0e3e6;exitX=0.011;exitY=0.904;exitDx=0;exitDy=0;entryX=1;entryY=0;entryDx=0;entryDy=0;exitPerimeter=0;" edge="1" parent="1" source="1753" target="XpW8_SyGIJJUAxE8_dCc-1780">
          <mxGeometry relative="1" as="geometry">
            <mxPoint x="223" y="425.5" as="sourcePoint" />
            <mxPoint x="176" y="435" as="targetPoint" />
          </mxGeometry>
        </mxCell>
        <mxCell id="XpW8_SyGIJJUAxE8_dCc-1784" value="" style="shape=curlyBracket;whiteSpace=wrap;html=1;rounded=1;flipH=1;fontSize=18;fillColor=#71E6F0;" vertex="1" parent="1">
          <mxGeometry x="1270" y="190" width="20" height="121" as="geometry" />
        </mxCell>
        <mxCell id="XpW8_SyGIJJUAxE8_dCc-1786" value="含附加信息查询及应答" style="text;html=1;strokeColor=none;fillColor=none;align=center;verticalAlign=middle;whiteSpace=wrap;rounded=0;fontSize=23;" vertex="1" parent="1">
          <mxGeometry x="1300" y="220.75" width="120" height="59.5" as="geometry" />
        </mxCell>
        <mxCell id="XpW8_SyGIJJUAxE8_dCc-1787" value="" style="shape=curlyBracket;whiteSpace=wrap;html=1;rounded=1;flipH=1;fontSize=18;fillColor=#71E6F0;" vertex="1" parent="1">
          <mxGeometry x="1260" y="449.5" width="20" height="121" as="geometry" />
        </mxCell>
        <mxCell id="XpW8_SyGIJJUAxE8_dCc-1788" value="含附加信息查询及应答" style="text;html=1;strokeColor=none;fillColor=none;align=center;verticalAlign=middle;whiteSpace=wrap;rounded=0;fontSize=23;" vertex="1" parent="1">
          <mxGeometry x="1290" y="480.25" width="120" height="59.5" as="geometry" />
        </mxCell>
        <mxCell id="XpW8_SyGIJJUAxE8_dCc-1791" value="收款方" style="rounded=1;whiteSpace=wrap;html=1;shadow=0;labelBackgroundColor=none;strokeColor=none;strokeWidth=3;fillColor=#64bbe2;fontFamily=Helvetica;fontSize=14;fontColor=#FFFFFF;align=center;spacing=5;arcSize=7;perimeterSpacing=2;" vertex="1" parent="1">
          <mxGeometry x="494.38" y="920" width="150" height="60" as="geometry" />
        </mxCell>
        <mxCell id="XpW8_SyGIJJUAxE8_dCc-1792" value="1、主扫" style="edgeStyle=none;rounded=0;jumpStyle=none;html=1;shadow=0;labelBackgroundColor=none;startArrow=none;startFill=0;endArrow=classic;endFill=1;jettySize=auto;orthogonalLoop=1;strokeColor=#1699D3;strokeWidth=3;fontFamily=Helvetica;fontSize=16;spacing=5;exitX=0.25;exitY=1;exitDx=0;exitDy=0;fontStyle=1;entryX=0.25;entryY=0;entryDx=0;entryDy=0;horizontal=0;fontColor=#6666FF;" edge="1" parent="1" source="1762" target="XpW8_SyGIJJUAxE8_dCc-1791">
          <mxGeometry x="0.0271" y="-31" relative="1" as="geometry">
            <mxPoint x="580" y="642.5" as="sourcePoint" />
            <mxPoint x="531" y="858" as="targetPoint" />
            <mxPoint as="offset" />
          </mxGeometry>
        </mxCell>
        <mxCell id="XpW8_SyGIJJUAxE8_dCc-1793" value="&lt;font style=&quot;font-size: 16px;&quot;&gt;2、获取授权&lt;/font&gt;" style="edgeStyle=none;rounded=0;jumpStyle=none;html=1;shadow=0;labelBackgroundColor=none;startArrow=none;startFill=0;endArrow=classic;endFill=1;jettySize=auto;orthogonalLoop=1;strokeColor=#1699D3;strokeWidth=3;fontFamily=Helvetica;fontSize=16;spacing=5;exitX=0.5;exitY=0;exitDx=0;exitDy=0;entryX=0.5;entryY=1;entryDx=0;entryDy=0;fontStyle=1;horizontal=0;fontColor=#6666FF;" edge="1" parent="1" source="XpW8_SyGIJJUAxE8_dCc-1791" target="1762">
          <mxGeometry x="-0.1697" y="20" relative="1" as="geometry">
            <mxPoint x="541.4999999999998" y="788.5" as="sourcePoint" />
            <mxPoint x="541" y="868.0000000000002" as="targetPoint" />
            <mxPoint y="1" as="offset" />
          </mxGeometry>
        </mxCell>
        <mxCell id="XpW8_SyGIJJUAxE8_dCc-1794" value="3、确认授权" style="edgeStyle=none;rounded=0;jumpStyle=none;html=1;shadow=0;labelBackgroundColor=none;startArrow=none;startFill=0;endArrow=classic;endFill=1;jettySize=auto;orthogonalLoop=1;strokeColor=#1699D3;strokeWidth=3;fontFamily=Helvetica;fontSize=16;spacing=5;exitX=1;exitY=0.25;exitDx=0;exitDy=0;entryX=0;entryY=0.25;entryDx=0;entryDy=0;fontStyle=1;fontColor=#6666FF;" edge="1" parent="1" source="1762" target="1761">
          <mxGeometry x="0.0315" y="21" relative="1" as="geometry">
            <mxPoint x="618.4999999999995" y="867.9999999999998" as="sourcePoint" />
            <mxPoint x="618.4999999999995" y="788.5" as="targetPoint" />
            <mxPoint as="offset" />
          </mxGeometry>
        </mxCell>
        <mxCell id="XpW8_SyGIJJUAxE8_dCc-1796" value="4、返回确认授权信息" style="edgeStyle=none;rounded=0;jumpStyle=none;html=1;shadow=0;labelBackgroundColor=none;startArrow=none;startFill=0;endArrow=classic;endFill=1;jettySize=auto;orthogonalLoop=1;strokeColor=#1699D3;strokeWidth=3;fontFamily=Helvetica;fontSize=16;spacing=5;exitX=0;exitY=0.75;exitDx=0;exitDy=0;entryX=1;entryY=0.75;entryDx=0;entryDy=0;fontStyle=1;fontColor=#6666FF;" edge="1" parent="1" source="1761" target="1762">
          <mxGeometry x="-0.0315" y="17" relative="1" as="geometry">
            <mxPoint x="656.9999999999998" y="740.5000000000002" as="sourcePoint" />
            <mxPoint x="764.2499999999998" y="740.5000000000002" as="targetPoint" />
            <mxPoint x="-1" as="offset" />
          </mxGeometry>
        </mxCell>
        <mxCell id="XpW8_SyGIJJUAxE8_dCc-1798" value="5、获取用户标识" style="edgeStyle=none;rounded=0;jumpStyle=none;html=1;shadow=0;labelBackgroundColor=none;startArrow=none;startFill=0;endArrow=classic;endFill=1;jettySize=auto;orthogonalLoop=1;strokeColor=#1699D3;strokeWidth=3;fontFamily=Helvetica;fontSize=16;spacing=5;exitX=1;exitY=0.25;exitDx=0;exitDy=0;entryX=0;entryY=0.25;entryDx=0;entryDy=0;fontStyle=1;fontColor=#6666FF;" edge="1" parent="1" source="XpW8_SyGIJJUAxE8_dCc-1791" target="1763">
          <mxGeometry x="-0.1188" y="24" relative="1" as="geometry">
            <mxPoint x="679.38" y="933" as="sourcePoint" />
            <mxPoint x="739.38" y="933" as="targetPoint" />
            <mxPoint x="-1" as="offset" />
          </mxGeometry>
        </mxCell>
        <mxCell id="XpW8_SyGIJJUAxE8_dCc-1799" value="8、返回用户标识" style="edgeStyle=none;rounded=0;jumpStyle=none;html=1;shadow=0;labelBackgroundColor=none;startArrow=none;startFill=0;endArrow=classic;endFill=1;jettySize=auto;orthogonalLoop=1;strokeColor=#1699D3;strokeWidth=3;fontFamily=Helvetica;fontSize=16;spacing=5;entryX=1;entryY=0.75;entryDx=0;entryDy=0;exitX=0;exitY=0.75;exitDx=0;exitDy=0;fontStyle=1;fontColor=#6666FF;" edge="1" parent="1" source="1763" target="XpW8_SyGIJJUAxE8_dCc-1791">
          <mxGeometry x="0.0412" y="24" relative="1" as="geometry">
            <mxPoint x="749.38" y="966" as="sourcePoint" />
            <mxPoint x="689.38" y="970" as="targetPoint" />
            <mxPoint as="offset" />
          </mxGeometry>
        </mxCell>
        <mxCell id="XpW8_SyGIJJUAxE8_dCc-1801" value="7、返回用户标识" style="edgeStyle=none;rounded=0;jumpStyle=none;html=1;shadow=0;labelBackgroundColor=none;startArrow=none;startFill=0;endArrow=classic;endFill=1;jettySize=auto;orthogonalLoop=1;strokeColor=#1699D3;strokeWidth=3;fontFamily=Helvetica;fontSize=16;spacing=5;exitX=0.25;exitY=1;exitDx=0;exitDy=0;entryX=0.25;entryY=0;entryDx=0;entryDy=0;fontStyle=1;horizontal=0;fontColor=#6666FF;" edge="1" parent="1" source="1761" target="1763">
          <mxGeometry x="0.0266" y="-23" relative="1" as="geometry">
            <mxPoint x="941.1199999999998" y="776.5" as="sourcePoint" />
            <mxPoint x="960.62" y="830" as="targetPoint" />
            <mxPoint as="offset" />
          </mxGeometry>
        </mxCell>
        <mxCell id="XpW8_SyGIJJUAxE8_dCc-1802" value="6、获取用户标识" style="edgeStyle=none;rounded=0;jumpStyle=none;html=1;shadow=0;labelBackgroundColor=none;startArrow=none;startFill=0;endArrow=classic;endFill=1;jettySize=auto;orthogonalLoop=1;strokeColor=#1699D3;strokeWidth=3;fontFamily=Helvetica;fontSize=16;spacing=5;exitX=0.75;exitY=0;exitDx=0;exitDy=0;entryX=0.75;entryY=1;entryDx=0;entryDy=0;fontStyle=1;horizontal=0;fontColor=#6666FF;" edge="1" parent="1" source="1763" target="1761">
          <mxGeometry x="-0.0238" y="-20" relative="1" as="geometry">
            <mxPoint x="1018.1199999999995" y="855.9999999999998" as="sourcePoint" />
            <mxPoint x="1017.62" y="790" as="targetPoint" />
            <mxPoint as="offset" />
          </mxGeometry>
        </mxCell>
        <mxCell id="XpW8_SyGIJJUAxE8_dCc-1803" value="收款方服务页" style="rounded=1;whiteSpace=wrap;html=1;shadow=0;labelBackgroundColor=none;strokeWidth=3;fontFamily=Helvetica;fontSize=14;align=center;spacing=5;arcSize=7;perimeterSpacing=2;dashed=1;fillColor=none;fontStyle=1;strokeColor=#000099;fontColor=#000099;" vertex="1" parent="1">
          <mxGeometry x="160" y="716.5" width="150" height="60" as="geometry" />
        </mxCell>
        <mxCell id="XpW8_SyGIJJUAxE8_dCc-1804" value="9、返回商品服务" style="edgeStyle=none;rounded=0;jumpStyle=none;html=1;shadow=0;labelBackgroundColor=none;startArrow=none;startFill=0;endArrow=classic;endFill=1;jettySize=auto;orthogonalLoop=1;strokeColor=#1699D3;strokeWidth=3;fontFamily=Helvetica;fontSize=16;spacing=5;exitX=0.75;exitY=0;exitDx=0;exitDy=0;fontStyle=1;horizontal=0;fontColor=#6666FF;entryX=0.75;entryY=1;entryDx=0;entryDy=0;" edge="1" parent="1" source="XpW8_SyGIJJUAxE8_dCc-1791" target="1762">
          <mxGeometry x="-0.0237" y="-22" relative="1" as="geometry">
            <mxPoint x="579.3799999999999" y="927.9999999999998" as="sourcePoint" />
            <mxPoint x="610" y="810" as="targetPoint" />
            <mxPoint as="offset" />
          </mxGeometry>
        </mxCell>
        <mxCell id="XpW8_SyGIJJUAxE8_dCc-1805" value="10、挑选商品或服务" style="edgeStyle=none;rounded=0;jumpStyle=none;html=1;shadow=0;labelBackgroundColor=none;startArrow=none;startFill=0;endArrow=classic;endFill=1;jettySize=auto;orthogonalLoop=1;strokeWidth=3;fontFamily=Helvetica;fontSize=16;spacing=5;exitX=0;exitY=0.5;exitDx=0;exitDy=0;fontStyle=1;horizontal=1;fontColor=#6666FF;strokeColor=#000099;" edge="1" parent="1" source="1762" target="XpW8_SyGIJJUAxE8_dCc-1803">
          <mxGeometry x="0.0271" y="-31" relative="1" as="geometry">
            <mxPoint x="541.4999999999998" y="788.5" as="sourcePoint" />
            <mxPoint x="540.8800000000001" y="927.9999999999998" as="targetPoint" />
            <mxPoint as="offset" />
          </mxGeometry>
        </mxCell>
        <mxCell id="XpW8_SyGIJJUAxE8_dCc-1806" value="11、统一下单" style="edgeStyle=orthogonalEdgeStyle;rounded=1;jumpStyle=none;html=1;shadow=0;labelBackgroundColor=none;startArrow=none;startFill=0;endArrow=classic;endFill=1;jettySize=auto;orthogonalLoop=1;strokeWidth=3;fontFamily=Helvetica;fontSize=16;spacing=5;fontStyle=1;horizontal=1;entryX=0.25;entryY=1;entryDx=0;entryDy=0;fontColor=#6666FF;strokeColor=#000099;exitX=0.75;exitY=1;exitDx=0;exitDy=0;" edge="1" parent="1" source="XpW8_SyGIJJUAxE8_dCc-1803" target="1763">
          <mxGeometry x="-0.3716" y="30" relative="1" as="geometry">
            <mxPoint x="290" y="779" as="sourcePoint" />
            <mxPoint x="402" y="756.5" as="targetPoint" />
            <mxPoint as="offset" />
            <Array as="points">
              <mxPoint x="274" y="1030" />
              <mxPoint x="943" y="1030" />
            </Array>
          </mxGeometry>
        </mxCell>
        <mxCell id="XpW8_SyGIJJUAxE8_dCc-1808" value="12、调用银联支付" style="edgeStyle=orthogonalEdgeStyle;rounded=1;jumpStyle=none;html=1;shadow=0;labelBackgroundColor=none;startArrow=none;startFill=0;endArrow=classic;endFill=1;jettySize=auto;orthogonalLoop=1;strokeWidth=3;fontFamily=Helvetica;fontSize=16;spacing=5;exitX=1;exitY=0.25;exitDx=0;exitDy=0;fontStyle=1;horizontal=0;fontColor=#6666FF;strokeColor=#000099;" edge="1" parent="1" source="1763" target="1761">
          <mxGeometry x="0.0271" y="-31" relative="1" as="geometry">
            <mxPoint x="245" y="788.5" as="sourcePoint" />
            <mxPoint x="1050" y="750" as="targetPoint" />
            <mxPoint as="offset" />
            <Array as="points">
              <mxPoint x="1140" y="934" />
              <mxPoint x="1140" y="770" />
            </Array>
          </mxGeometry>
        </mxCell>
        <mxCell id="XpW8_SyGIJJUAxE8_dCc-1809" value="13、支付成功" style="edgeStyle=orthogonalEdgeStyle;jumpStyle=none;html=1;shadow=0;labelBackgroundColor=none;startArrow=none;startFill=0;endArrow=classic;endFill=1;jettySize=auto;orthogonalLoop=1;strokeWidth=3;fontFamily=Helvetica;fontSize=16;spacing=5;fontStyle=1;horizontal=0;fontColor=#6666FF;exitX=1;exitY=0.25;exitDx=0;exitDy=0;rounded=1;strokeColor=#000099;" edge="1" parent="1" source="1761" target="1763">
          <mxGeometry x="-0.0177" y="20" relative="1" as="geometry">
            <mxPoint x="1100" y="700" as="sourcePoint" />
            <mxPoint x="1060" y="970" as="targetPoint" />
            <mxPoint as="offset" />
            <Array as="points">
              <mxPoint x="1200" y="731" />
              <mxPoint x="1200" y="970" />
            </Array>
          </mxGeometry>
        </mxCell>
      </root>
    </mxGraphModel>
  </diagram>
</mxfile>
